<?xml version="1.0" encoding="utf-8"?>
<!-- Generator: Adobe Illustrator 21.1.0, SVG Export Plug-In . SVG Version: 6.00 Build 0)  -->
<svg version="1.1" id="Layer_1" xmlns="http://www.w3.org/2000/svg" xmlns:xlink="http://www.w3.org/1999/xlink" x="0px" y="0px"
	 viewBox="0 0 367 56.7" style="enable-background:new 0 0 367 56.7;" xml:space="preserve">
<style type="text/css">
	.st0{fill:#FFFFFF;}
	.st1{fill:#FFFFFF;stroke:#FFFFFF;stroke-width:0.25;}
	.st2{fill:#FFFFFF;stroke:#FFFFFF;stroke-width:0.25;stroke-miterlimit:10;}
</style>
<path class="st0" d="M58.7,55.6c12.4-7,32-23.2,28.9-39.7C84.8,1.8,68-3.9,57.8,6.8c0.5-0.1,1-0.1,1.6-0.2
	c-9.5-10.6-26-5.2-29.6,7.8c-2.3,8.2,1.3,15.7,6.3,22.1c5.9,7.5,12.9,14.6,21.3,19.2c0.6,0.3,2.2-0.5,1.4-0.9
	c-7.1-3.9-13-9.4-18.2-15.5c-3.8-4.4-7.7-9.3-9.1-15c-1.8-7.3,0.6-15.9,7.1-20.1c6.3-4.1,14.2-2.4,19,3.1c0.4,0.4,1.3,0.1,1.6-0.2
	C71.6-5.8,88.7,9,85.7,24c-1.2,6-5.1,10.9-9.1,15.4C71.1,45.5,64.8,51,57.5,55C56.5,55.6,58.1,56,58.7,55.6z"/>
<g>
	<path class="st0" d="M1,51.7c4.9-1.1,5.2-5.5,5.2-16.8V9c0-3.5-1.3-5.3-4.4-6.1V2.3c2.9,0.2,5.4,0.3,7.5,0.3c4.6,0,7.2-0.3,7.7-0.3
		c0.1,0,0.1,0,0.1,0v0.6C14,3.5,12.7,5.5,12.7,9v25.9c0,0.1,0,0.2,0,0.5c0,11.2,0.5,15.1,5.3,16.3v0.6c-3.8-0.2-6.7-0.2-8.8-0.2
		c-2.7,0-5.4,0.1-8.2,0.2V51.7z"/>
</g>
<g>
	<path class="st0" d="M92.6,52.5c5.1-1.3,8.4-2,7.9-16.2c0-0.3,0-0.6,0-0.9V9.5c0-4-1-5.9-4.3-6.5V2.4c1.6,0.1,5.1,0.1,10.4,0.1
		c4,0,7.8-0.2,11.5-0.2c9.2,0,16.3,0.9,22.3,5.1c6.4,4.4,9.7,11,9.7,19.2c0,7.9-2.9,14.8-8.1,19.6c-5.7,5.4-12.8,7.1-22.7,7.1
		c-4.3,0-8.9-0.5-13.8-0.5c-2.7,0-10.4,0.1-14.5,0.3L92.6,52.5z M107.1,35.4c0,6.3,0.2,10.3,0.6,11.8c0.9,3.9,4.2,4.4,10.9,4.4
		c15,0,23.4-8.7,23.4-24.1c0-16.7-8.3-23.3-25.8-23.3c-2.9,0-6,0.1-9.1,0.3V35.4z"/>
	<path class="st0" d="M174.6,12c12.8,0,21.6,8.9,21.6,20.3c0,11.4-9.3,20.5-21.5,20.5c-12.6,0-21.5-8.9-21.5-20.5
		C153.2,20.7,162,12,174.6,12z M174.8,51.6c8.9,0,15.2-6.8,15.2-19.2c0-12.4-6-19.2-15.3-19.2c-9.5,0-15.3,6.7-15.3,19.1
		C159.4,44.7,165.4,51.6,174.8,51.6z"/>
	<path class="st0" d="M220.6,12c12.8,0,21.6,8.9,21.6,20.3c0,11.4-9.2,20.5-21.5,20.5c-12.6,0-21.5-8.9-21.5-20.5
		C199.2,20.7,208,12,220.6,12z M220.7,51.6c8.9,0,15.2-6.8,15.2-19.2c0-12.4-6-19.2-15.3-19.2c-9.5,0-15.3,6.7-15.3,19.1
		C205.4,44.7,211.4,51.6,220.7,51.6z"/>
	<path class="st0" d="M240.8,51.3c4.6-1.1,5.2-6.9,5.2-17.1V21c0-3.8-0.1-6-3.9-7.5V13c1.8,0.1,3.3,0.1,4.3,0.1c0.8,0,2.2,0,4.3-0.1
		c8.4,9.8,17,19.6,27,29.1v-6.8c0-3.2,0-5.2,0-6.3c0-9-0.3-13.4-5-15.6V13c2.1,0.1,3.9,0.2,5.4,0.2c2,0,4.1-0.1,6.2-0.2v0.4
		c-4.8,1.9-5.2,6.9-5.2,17v22.5h-0.5c-10-12.5-20.7-23.8-31.2-35.3v14.9c0,11,0,17.3,5,18.8v0.5c-1.4,0-2.5,0-3.6,0
		c-2,0-3.3,0-3.9,0c-0.4,0-1.8,0-4.2,0V51.3z"/>
	<path class="st0" d="M295.3,13.2h23.4l3,8.4l-0.4,0.2c-5.3-6.8-11.2-7.2-19.6-7.2c-1.1,0-2.4,0-3.6,0c-0.3,0-1.5,0-3.4,0.1v15.8
		c1.8,0.1,3.1,0.1,3.6,0.1h6.6c5.6,0,8.8-1.1,10.5-5.2h0.4v11.9h-0.4c-1.5-4-4.7-5.3-10.5-5.3h-6.6c-0.1,0-0.3,0-0.5,0
		c-0.4,0-0.8,0-1.6,0c-0.1,0-0.6,0.1-1.5,0.1v8.5c0,4.1,0,6.7,0.4,7.7c0.8,2.1,3.1,2.1,7.6,2.1c9.3,0,15.8-1,20.8-7.8l0.4,0.1
		l-3,9.1h-23.3c-0.1,0-2,0-5.6,0c-0.2,0-0.9,0-2,0c-0.4,0-1.8,0-4.3,0.1v-0.5c3.9-0.7,4-4.4,4-13V18.5c0-3.1-1-4.6-3.3-4.9v-0.5
		C289.1,13.2,292.1,13.2,295.3,13.2z"/>
	<path class="st0" d="M338.8,51.5c3.9-1,4.1-4.4,4.1-13.1v-3l-11.8-15.1c-3-3.8-5.2-6.1-6.8-6.9v-0.5c2.5,0.1,4.6,0.2,6.3,0.2
		c1.6,0,3.9-0.1,6.8-0.2v0.5c-1.8,0.4-2.8,1.2-2.8,2.6c0,1.3,1,2.9,2.8,5.1l9.9,12.1c6.9-9.2,10.7-14.5,10.7-16.8
		c0-1.5-0.9-2.3-2.8-3v-0.5c1.7,0.1,3.5,0.2,5.3,0.2c1.6,0,3.4-0.1,5.5-0.2v0.5c-4,2.1-9.3,9.7-18.1,21.4v3.5c0,0.1,0,0.2,0,0.4
		c0,8.6,0.3,11.8,4,12.7v0.5c-2.8-0.1-5.1-0.2-6.8-0.2c-1.8,0-4,0.1-6.3,0.2V51.5z"/>
</g>
<g>
	<path class="st1" d="M56.9,32.8c-0.3,1.7-0.7,3-1.3,3.9c-0.6,0.9-1.4,1.3-2.3,1.3c-0.9,0-1.6-0.4-2.1-1.1c-0.5-0.8-0.8-1.8-0.8-3.1
		c0-1.1,0.1-2.1,0.4-3.2c0.3-1,0.7-2,1.3-3c0.4-0.6,0.7-1.1,1.2-1.6c0.4-0.4,0.7-0.7,0.8-0.7c0.1,0,0.2,0,0.2,0.1
		c0,0,0.1,0.1,0.1,0.2c0,0.1-0.2,0.4-0.5,0.9c-0.3,0.5-0.6,0.9-0.8,1.3c-0.4,0.8-0.6,1.7-0.8,2.7c-0.2,1-0.3,2-0.3,3.1
		c0,1.2,0.1,2,0.4,2.6c0.3,0.5,0.7,0.8,1.3,0.8c0.6,0,1.2-0.3,1.6-1c0.4-0.7,0.7-1.7,1-3c-1,0-1.8-0.3-2.4-0.9
		c-0.6-0.5-0.8-1.3-0.8-2.3c0-1,0.2-1.8,0.7-2.5c0.4-0.7,1-1,1.6-1c0.6,0,1.1,0.3,1.4,1c0.3,0.7,0.5,1.6,0.5,2.9
		c0,0.3,0,0.8-0.1,1.6c0,0.2,0,0.3,0,0.4c1-0.4,1.9-1.1,2.7-2.1c0.8-1.1,1.2-1.6,1.3-1.6c0.1,0,0.1,0,0.2,0.1c0,0.1,0.1,0.1,0.1,0.2
		c0,0.5-0.5,1.2-1.4,2.2C59,31.8,58,32.5,56.9,32.8z M56.4,32.1c0-0.3,0.1-0.6,0.1-1c0-0.3,0-0.6,0-0.8c0-1.2-0.1-2-0.3-2.6
		c-0.2-0.6-0.5-0.8-1-0.8c-0.4,0-0.8,0.3-1.1,0.8c-0.3,0.5-0.5,1.2-0.5,1.9c0,0.8,0.2,1.5,0.6,1.9c0.4,0.4,1,0.7,1.8,0.7L56.4,32.1z
		"/>
	<path class="st1" d="M66.1,31.4c-0.5,2-1,3.5-1.7,4.6c-0.6,1-1.4,1.5-2.2,1.5c-0.7,0-1.3-0.4-1.7-1.1c-0.4-0.8-0.6-1.8-0.6-3.1
		c0-0.7,0.1-1.6,0.2-2.6c0.2-1,0.4-2.2,0.7-3.5c0.1-0.5,0.3-0.8,0.4-1c0.2-0.2,0.4-0.3,0.6-0.3c0.2,0,0.3,0.1,0.5,0.2
		c0.1,0.1,0.2,0.2,0.2,0.3c0,0.2-0.2,1.1-0.5,2.6c-0.3,1.5-0.5,2.9-0.5,4.1c0,1,0.1,1.8,0.3,2.3c0.2,0.5,0.5,0.8,0.9,0.8
		c0.5,0,1-0.5,1.5-1.5c0.5-1,0.9-2.5,1.4-4.6c-0.1-0.5-0.2-0.9-0.3-1.4c-0.1-0.5-0.1-1-0.1-1.6c0-0.8,0.1-1.4,0.3-1.9
		c0.2-0.4,0.4-0.7,0.7-0.7c0.2,0,0.4,0.1,0.5,0.4c0.1,0.3,0.2,0.7,0.2,1.3c0,0.5-0.1,1-0.2,1.7c-0.1,0.6-0.3,1.3-0.5,2.1
		c0.1,0.5,0.3,0.8,0.6,1.1c0.3,0.3,0.6,0.4,0.9,0.4c0.3,0,0.7-0.1,1-0.4c0.3-0.3,0.6-0.7,0.9-1.3c0.1-0.1,0.1-0.2,0.2-0.4
		c0.2-0.4,0.3-0.6,0.5-0.6c0.1,0,0.1,0,0.1,0.1c0,0,0.1,0.1,0.1,0.2c0,0.6-0.3,1.3-1,2c-0.6,0.7-1.3,1.1-2,1.1
		c-0.3,0-0.6-0.1-0.9-0.3C66.5,32,66.3,31.7,66.1,31.4z"/>
	<g>
		<path class="st1" d="M44.2,31.6c0.1,2,0.3,3.5,0.8,4.5c0.5,1,1.1,1.5,2,1.5c0.7,0,1.3-0.4,1.9-1.3c0.6-0.9,1.1-2.2,1.5-4.1
			c0.1-0.3,0.2-0.7,0.2-1.1c0.1-0.6,0.3-1,0.5-1c0.1,0,0.1,0.1,0.2,0.1c0.1,0.1,0.1,0.2,0.1,0.3c0,0.2-0.1,0.6-0.2,1.2
			c-0.1,0.6-0.3,1.2-0.4,1.8c-0.5,1.7-1.1,3-1.8,3.9c-0.7,0.8-1.5,1.3-2.4,1.3c-1.4,0-2.4-0.7-3.1-2.1c-0.7-1.4-1-3.4-1-6.1
			c0-3.5,0.3-6.9,0.8-10.2c0.5-3.3,1.2-6,2-8.1c0.3-0.8,0.7-1.5,1.1-1.9c0.4-0.4,0.8-0.6,1.3-0.6c0.8,0,1.4,0.4,1.8,1.3
			c0.4,0.9,0.6,2.1,0.6,3.8c0,2.7-0.5,5.5-1.5,8.3C47.5,26,46.1,28.8,44.2,31.6z M44.2,30.4c1.4-2.4,2.5-5.1,3.3-8
			c0.8-2.9,1.2-5.7,1.2-8.3c0-1.2-0.1-2.1-0.3-2.7c-0.2-0.6-0.6-0.9-1-0.9c-0.8,0-1.5,1.9-2.1,5.7C44.6,20,44.2,24.7,44.2,30.4z"/>
	</g>
	<path class="st2" d="M44.2,31.5c-0.5,1-1.6,1.9-2.6,2.4c-2,1-3.2,1.2-5.5,0.6c-1.3-0.3-2.9-1.4-3.1-3v-0.8c0.2,1.6,1.5,2.6,2.8,2.9
		c2.2,0.6,3.5,0.4,5.4-0.6c1-0.5,2.3-1.7,2.9-2.6L44.2,31.5z"/>
	<path class="st1" d="M71.1,33.4c1-1,1.8-2.1,2.4-3.3c0.6-1.2,0.9-2.2,0.9-3c0-0.4-0.1-0.7-0.2-0.8c-0.1-0.2-0.3-0.3-0.6-0.3
		c-0.6,0-1.1,0.6-1.5,1.9C71.7,29.3,71.3,31.1,71.1,33.4z M80.8,36c-3,2.8-6.9,2.9-8.8,2c-1.2-0.6-1.8-1.5-1.8-1.5
		c-0.7-0.8-0.9-1.8-0.9-3.2c0-2.1,0.5-4,1.4-5.6c1-1.6,2-2.3,3.2-2.3c0.5,0,0.9,0.2,1.2,0.5c0.3,0.3,0.4,0.8,0.4,1.4
		c0,1-0.4,2.2-1.2,3.4c-0.8,1.2-1.9,2.5-3.3,3.7c0,0.8,0.2,1.1,0.5,1.7c1.1,1.5,2.9,1.7,4.2,1.6c1.4-0.1,3.9-0.9,4.7-2.7L80.8,36z"
		/>
</g>
</svg>
